<svg width="100" height="100" viewBox="0 0 100 100" fill="none" xmlns="http://www.w3.org/2000/svg">
<g clip-path="url(#clip0)">
<path d="M100 96.5517C99.9859 98.4503 98.4503 99.9859 96.5517 100H17.7759C8.5948 100.117 0.871761 93.1451 0.0517197 84C-0.292955 79.2253 1.36304 74.5222 4.62321 71.0168C7.88339 67.5113 12.4542 65.5192 17.2414 65.5172H96.5517C98.4538 65.5229 99.9943 67.0634 100 68.9655C99.9859 70.8641 98.4503 72.3997 96.5517 72.4138H17.2414C11.6389 72.4236 7.05773 76.8826 6.89655 82.4828C6.94209 88.3901 11.765 93.1436 17.6724 93.1035H96.5517C98.4538 93.1091 99.9943 94.6497 100 96.5517V96.5517Z" fill="#2E6947"/>
<path d="M91.3793 82.7586C91.3386 86.3153 92.0495 89.8405 93.4655 93.1035H17.6724C11.765 93.1436 6.94209 88.3901 6.89655 82.4828C7.05773 76.8826 11.6389 72.4236 17.2414 72.4138H93.4655C92.0495 75.6767 91.3386 79.2019 91.3793 82.7586Z" fill="#F9EAB0"/>
<path d="M58.6207 81.0345H17.2414C16.2892 81.0345 15.5172 80.2626 15.5172 79.3103C15.5172 78.3581 16.2892 77.5862 17.2414 77.5862H58.6207C59.5729 77.5862 60.3448 78.3581 60.3448 79.3103C60.3448 80.2626 59.5729 81.0345 58.6207 81.0345Z" fill="#FAC176"/>
<path d="M82.7586 81.0345H65.5172C64.565 81.0345 63.7931 80.2626 63.7931 79.3103C63.7931 78.3581 64.565 77.5862 65.5172 77.5862H82.7586C83.7108 77.5862 84.4827 78.3581 84.4827 79.3103C84.4827 80.2626 83.7108 81.0345 82.7586 81.0345Z" fill="#FAC176"/>
<path d="M82.7586 87.931H41.3793C40.4271 87.931 39.6552 87.1591 39.6552 86.2069C39.6552 85.2547 40.4271 84.4827 41.3793 84.4827H82.7586C83.7108 84.4827 84.4828 85.2547 84.4828 86.2069C84.4828 87.1591 83.7108 87.931 82.7586 87.931Z" fill="#FAC176"/>
<path d="M34.4828 87.931H17.2414C16.2892 87.931 15.5172 87.1591 15.5172 86.2069C15.5172 85.2547 16.2892 84.4827 17.2414 84.4827H34.4828C35.435 84.4827 36.2069 85.2547 36.2069 86.2069C36.2069 87.1591 35.435 87.931 34.4828 87.931Z" fill="#FAC176"/>
<path d="M94.8276 41.3793C94.8219 43.2814 93.2814 44.8219 91.3793 44.8276H18.1034C10.9618 44.8276 5.17241 39.0382 5.17241 31.8965C5.17241 24.7549 10.9618 18.9655 18.1034 18.9655H91.3793C93.2837 18.9655 94.8276 20.5094 94.8276 22.4138C94.8276 24.3182 93.2837 25.8621 91.3793 25.8621H18.1034C14.7707 25.8621 12.069 28.5638 12.069 31.8965C12.069 35.2293 14.7707 37.931 18.1034 37.931H91.3793C93.2814 37.9367 94.8219 39.4772 94.8276 41.3793Z" fill="#2E6947"/>
<path d="M90.5172 37.931H18.1035C14.7707 37.931 12.069 35.2293 12.069 31.8965C12.069 28.5638 14.7707 25.8621 18.1035 25.8621H90.5172C89.0862 25.8621 87.931 28.569 87.931 31.8965C87.931 35.2241 89.0862 37.931 90.5172 37.931Z" fill="#F9EAB0"/>
<path d="M96.5517 44.8276H3.44828C1.54385 44.8276 0 46.3714 0 48.2759V62.069C0 63.9734 1.54385 65.5172 3.44828 65.5172H96.5517C98.4562 65.5172 100 63.9734 100 62.069V48.2759C100 46.3714 98.4562 44.8276 96.5517 44.8276Z" fill="#35495E"/>
<path d="M8.6207 44.8276H91.3793V65.5172H8.6207V44.8276Z" fill="#2C3E50"/>
<path d="M86.2069 0H13.7931C11.8887 0 10.3448 1.54385 10.3448 3.44828V15.5172C10.3448 17.4217 11.8887 18.9655 13.7931 18.9655H86.2069C88.1113 18.9655 89.6552 17.4217 89.6552 15.5172V3.44828C89.6552 1.54385 88.1113 0 86.2069 0Z" fill="#35495E"/>
<path d="M18.9655 0H81.0345V18.9655H18.9655V0Z" fill="#2C3E50"/>
<path d="M25.8621 56.8965H15.5172C14.565 56.8965 13.7931 56.1246 13.7931 55.1724C13.7931 54.2202 14.565 53.4483 15.5172 53.4483H25.8621C26.8143 53.4483 27.5862 54.2202 27.5862 55.1724C27.5862 56.1246 26.8143 56.8965 25.8621 56.8965Z" fill="#ECF0F1"/>
<path d="M84.4827 56.8965H34.4828C33.5305 56.8965 32.7586 56.1246 32.7586 55.1724C32.7586 54.2202 33.5305 53.4483 34.4828 53.4483H84.4827C85.435 53.4483 86.2069 54.2202 86.2069 55.1724C86.2069 56.1246 85.435 56.8965 84.4827 56.8965Z" fill="#ECF0F1"/>
</g>
<defs>
<clipPath id="clip0">
<rect width="100" height="100" fill="white"/>
</clipPath>
</defs>
</svg>
