<svg width="307" height="90" viewBox="0 0 307 90" fill="none" xmlns="http://www.w3.org/2000/svg">
<path fill-rule="evenodd" clip-rule="evenodd" d="M45 90C69.8528 90 90 69.8528 90 45C90 20.1472 69.8528 0 45 0C20.1472 0 0 20.1472 0 45C0 69.8528 20.1472 90 45 90Z" fill="white"/>
<path d="M23.8741 22.7762C23.8741 18.9102 27.0081 15.7762 30.8741 15.7762H31.4113V74.0638H30.8741C27.0081 74.0638 23.8741 70.9298 23.8741 67.0638V22.7762Z" fill="#2A3F59"/>
<path d="M31.4113 15.7762H58.3287C62.1947 15.7762 65.3287 18.9102 65.3287 22.7762V67.0638C65.3287 70.9298 62.1947 74.0638 58.3287 74.0638H31.4113V15.7762Z" fill="#5E82A6"/>
<rect x="36.6874" y="22.0572" width="19.3007" height="2.5124" rx="1.2562" fill="white"/>
<rect x="38.9485" y="26.9162" width="14.2657" height="2.5124" rx="1.2562" fill="white"/>
<path d="M45.9184 69.4942C46.5042 70.08 47.4539 70.08 48.0397 69.4942L57.5856 59.9483C58.1714 59.3625 58.1714 58.4127 57.5856 57.827C56.9998 57.2412 56.0501 57.2412 55.4643 57.827L46.979 66.3122L38.4938 57.827C37.908 57.2412 36.9582 57.2412 36.3724 57.827C35.7866 58.4127 35.7866 59.3625 36.3724 59.9483L45.9184 69.4942ZM45.479 46.6154V68.4336H48.479V46.6154H45.479Z" fill="white"/>
<line x1="36.5909" y1="46.979" x2="57.5699" y2="46.979" stroke="white" stroke-width="2"/>
<path d="M129.062 50.1719C128.641 53.7812 127.305 56.5703 125.055 58.5391C122.82 60.4922 119.844 61.4688 116.125 61.4688C112.094 61.4688 108.859 60.0234 106.422 57.1328C104 54.2422 102.789 50.375 102.789 45.5312V42.25C102.789 39.0781 103.352 36.2891 104.477 33.8828C105.617 31.4766 107.227 29.6328 109.305 28.3516C111.383 27.0547 113.789 26.4062 116.523 26.4062C120.148 26.4062 123.055 27.4219 125.242 29.4531C127.43 31.4688 128.703 34.2656 129.062 37.8438H124.539C124.148 35.125 123.297 33.1562 121.984 31.9375C120.688 30.7188 118.867 30.1094 116.523 30.1094C113.648 30.1094 111.391 31.1719 109.75 33.2969C108.125 35.4219 107.312 38.4453 107.312 42.3672V45.6719C107.312 49.375 108.086 52.3203 109.633 54.5078C111.18 56.6953 113.344 57.7891 116.125 57.7891C118.625 57.7891 120.539 57.2266 121.867 56.1016C123.211 54.9609 124.102 52.9844 124.539 50.1719H129.062ZM139.258 61H134.922V25H139.258V61ZM161.875 61C161.625 60.5 161.422 59.6094 161.266 58.3281C159.25 60.4219 156.844 61.4688 154.047 61.4688C151.547 61.4688 149.492 60.7656 147.883 59.3594C146.289 57.9375 145.492 56.1406 145.492 53.9688C145.492 51.3281 146.492 49.2812 148.492 47.8281C150.508 46.3594 153.336 45.625 156.977 45.625H161.195V43.6328C161.195 42.1172 160.742 40.9141 159.836 40.0234C158.93 39.1172 157.594 38.6641 155.828 38.6641C154.281 38.6641 152.984 39.0547 151.938 39.8359C150.891 40.6172 150.367 41.5625 150.367 42.6719H146.008C146.008 41.4062 146.453 40.1875 147.344 39.0156C148.25 37.8281 149.469 36.8906 151 36.2031C152.547 35.5156 154.242 35.1719 156.086 35.1719C159.008 35.1719 161.297 35.9062 162.953 37.375C164.609 38.8281 165.469 40.8359 165.531 43.3984V55.0703C165.531 57.3984 165.828 59.25 166.422 60.625V61H161.875ZM154.68 57.6953C156.039 57.6953 157.328 57.3438 158.547 56.6406C159.766 55.9375 160.648 55.0234 161.195 53.8984V48.6953H157.797C152.484 48.6953 149.828 50.25 149.828 53.3594C149.828 54.7188 150.281 55.7812 151.188 56.5469C152.094 57.3125 153.258 57.6953 154.68 57.6953ZM187.094 54.2734C187.094 53.1016 186.648 52.1953 185.758 51.5547C184.883 50.8984 183.344 50.3359 181.141 49.8672C178.953 49.3984 177.211 48.8359 175.914 48.1797C174.633 47.5234 173.68 46.7422 173.055 45.8359C172.445 44.9297 172.141 43.8516 172.141 42.6016C172.141 40.5234 173.016 38.7656 174.766 37.3281C176.531 35.8906 178.781 35.1719 181.516 35.1719C184.391 35.1719 186.719 35.9141 188.5 37.3984C190.297 38.8828 191.195 40.7812 191.195 43.0938H186.836C186.836 41.9062 186.328 40.8828 185.312 40.0234C184.312 39.1641 183.047 38.7344 181.516 38.7344C179.938 38.7344 178.703 39.0781 177.812 39.7656C176.922 40.4531 176.477 41.3516 176.477 42.4609C176.477 43.5078 176.891 44.2969 177.719 44.8281C178.547 45.3594 180.039 45.8672 182.195 46.3516C184.367 46.8359 186.125 47.4141 187.469 48.0859C188.812 48.7578 189.805 49.5703 190.445 50.5234C191.102 51.4609 191.43 52.6094 191.43 53.9688C191.43 56.2344 190.523 58.0547 188.711 59.4297C186.898 60.7891 184.547 61.4688 181.656 61.4688C179.625 61.4688 177.828 61.1094 176.266 60.3906C174.703 59.6719 173.477 58.6719 172.586 57.3906C171.711 56.0938 171.273 54.6953 171.273 53.1953H175.609C175.688 54.6484 176.266 55.8047 177.344 56.6641C178.438 57.5078 179.875 57.9297 181.656 57.9297C183.297 57.9297 184.609 57.6016 185.594 56.9453C186.594 56.2734 187.094 55.3828 187.094 54.2734ZM209.336 39.5312C208.68 39.4219 207.969 39.3672 207.203 39.3672C204.359 39.3672 202.43 40.5781 201.414 43V61H197.078V35.6406H201.297L201.367 38.5703C202.789 36.3047 204.805 35.1719 207.414 35.1719C208.258 35.1719 208.898 35.2812 209.336 35.5V39.5312ZM211.727 48.0859C211.727 45.6016 212.211 43.3672 213.18 41.3828C214.164 39.3984 215.523 37.8672 217.258 36.7891C219.008 35.7109 221 35.1719 223.234 35.1719C226.688 35.1719 229.477 36.3672 231.602 38.7578C233.742 41.1484 234.812 44.3281 234.812 48.2969V48.6016C234.812 51.0703 234.336 53.2891 233.383 55.2578C232.445 57.2109 231.094 58.7344 229.328 59.8281C227.578 60.9219 225.562 61.4688 223.281 61.4688C219.844 61.4688 217.055 60.2734 214.914 57.8828C212.789 55.4922 211.727 52.3281 211.727 48.3906V48.0859ZM216.086 48.6016C216.086 51.4141 216.734 53.6719 218.031 55.375C219.344 57.0781 221.094 57.9297 223.281 57.9297C225.484 57.9297 227.234 57.0703 228.531 55.3516C229.828 53.6172 230.477 51.1953 230.477 48.0859C230.477 45.3047 229.812 43.0547 228.484 41.3359C227.172 39.6016 225.422 38.7344 223.234 38.7344C221.094 38.7344 219.367 39.5859 218.055 41.2891C216.742 42.9922 216.086 45.4297 216.086 48.6016ZM239.102 48.0859C239.102 45.6016 239.586 43.3672 240.555 41.3828C241.539 39.3984 242.898 37.8672 244.633 36.7891C246.383 35.7109 248.375 35.1719 250.609 35.1719C254.062 35.1719 256.852 36.3672 258.977 38.7578C261.117 41.1484 262.188 44.3281 262.188 48.2969V48.6016C262.188 51.0703 261.711 53.2891 260.758 55.2578C259.82 57.2109 258.469 58.7344 256.703 59.8281C254.953 60.9219 252.938 61.4688 250.656 61.4688C247.219 61.4688 244.43 60.2734 242.289 57.8828C240.164 55.4922 239.102 52.3281 239.102 48.3906V48.0859ZM243.461 48.6016C243.461 51.4141 244.109 53.6719 245.406 55.375C246.719 57.0781 248.469 57.9297 250.656 57.9297C252.859 57.9297 254.609 57.0703 255.906 55.3516C257.203 53.6172 257.852 51.1953 257.852 48.0859C257.852 45.3047 257.188 43.0547 255.859 41.3359C254.547 39.6016 252.797 38.7344 250.609 38.7344C248.469 38.7344 246.742 39.5859 245.43 41.2891C244.117 42.9922 243.461 45.4297 243.461 48.6016ZM271.703 35.6406L271.82 38.4531C273.68 36.2656 276.188 35.1719 279.344 35.1719C282.891 35.1719 285.305 36.5312 286.586 39.25C287.43 38.0312 288.523 37.0469 289.867 36.2969C291.227 35.5469 292.828 35.1719 294.672 35.1719C300.234 35.1719 303.062 38.1172 303.156 44.0078V61H298.82V44.2656C298.82 42.4531 298.406 41.1016 297.578 40.2109C296.75 39.3047 295.359 38.8516 293.406 38.8516C291.797 38.8516 290.461 39.3359 289.398 40.3047C288.336 41.2578 287.719 42.5469 287.547 44.1719V61H283.188V44.3828C283.188 40.6953 281.383 38.8516 277.773 38.8516C274.93 38.8516 272.984 40.0625 271.938 42.4844V61H267.602V35.6406H271.703Z" fill="white"/>
</svg>
