<svg width="308" height="66" viewBox="0 0 308 66" fill="none" xmlns="http://www.w3.org/2000/svg">
<path fill-rule="evenodd" clip-rule="evenodd" d="M35 65.8884C54.33 65.8884 70 51.1388 70 32.9442C70 14.7496 54.33 0 35 0C15.67 0 0 14.7496 0 32.9442C0 51.1388 15.67 65.8884 35 65.8884Z" fill="white"/>
<path d="M17 17C17 14.2386 19.2386 12 22 12H23.5455V54.672H22C19.2386 54.672 17 52.4334 17 49.672V17Z" fill="#2A3F59"/>
<path d="M23.5455 12H48C50.7614 12 53 14.2386 53 17V49.672C53 52.4334 50.7614 54.672 48 54.672H23.5455V12Z" fill="#5E82A6"/>
<rect x="28.1273" y="16.5983" width="16.7611" height="1.83931" rx="0.919655" fill="white"/>
<rect x="30.0909" y="20.1555" width="12.3887" height="1.83931" rx="0.919655" fill="white"/>
<path d="M36.0041 51.6108C36.5899 52.1965 37.5397 52.1965 38.1254 51.6108L47.6714 42.0648C48.2572 41.479 48.2572 40.5293 47.6714 39.9435C47.0856 39.3577 46.1358 39.3577 45.5501 39.9435L37.0648 48.4288L28.5795 39.9435C27.9937 39.3577 27.044 39.3577 26.4582 39.9435C25.8724 40.5293 25.8724 41.479 26.4582 42.0648L36.0041 51.6108ZM35.5648 34.5771V50.5501H38.5648V34.5771H35.5648Z" fill="white"/>
<line x1="28.0435" y1="34.5754" x2="46.2621" y2="34.5754" stroke="white" stroke-width="2"/>
<path d="M118.259 40.0708C117.864 43.4546 116.611 46.0694 114.502 47.9151C112.407 49.7461 109.617 50.6617 106.13 50.6617C102.351 50.6617 99.3189 49.3067 97.0338 46.5967C94.7633 43.8868 93.628 40.2613 93.628 35.7203V32.6441C93.628 29.6705 94.1554 27.0557 95.2101 24.7999C96.2794 22.544 97.7882 20.8155 99.7364 19.6143C101.685 18.3985 103.941 17.7906 106.504 17.7906C109.902 17.7906 112.627 18.7427 114.678 20.647C116.729 22.5367 117.922 25.1587 118.259 28.5132H114.019C113.652 25.9644 112.854 24.1187 111.624 22.9761C110.408 21.8335 108.701 21.2623 106.504 21.2623C103.809 21.2623 101.692 22.2583 100.154 24.2505C98.6305 26.2427 97.8688 29.0772 97.8688 32.754V35.8521C97.8688 39.3238 98.5938 42.085 100.044 44.1358C101.494 46.1866 103.523 47.212 106.13 47.212C108.474 47.212 110.269 46.6846 111.514 45.6299C112.774 44.5606 113.608 42.7076 114.019 40.0708H118.259ZM127.817 50.2222H123.753V16.4722H127.817V50.2222ZM149.021 50.2222C148.787 49.7535 148.596 48.9185 148.45 47.7173C146.56 49.6802 144.304 50.6617 141.682 50.6617C139.338 50.6617 137.412 50.0025 135.903 48.6841C134.409 47.3511 133.662 45.6665 133.662 43.6304C133.662 41.1548 134.6 39.2359 136.475 37.8736C138.364 36.4966 141.016 35.8082 144.429 35.8082H148.384V33.9405C148.384 32.5196 147.959 31.3916 147.109 30.5567C146.26 29.7071 145.007 29.2823 143.352 29.2823C141.902 29.2823 140.686 29.6485 139.705 30.3809C138.723 31.1133 138.233 31.9996 138.233 33.0396H134.146C134.146 31.8531 134.563 30.7105 135.398 29.6119C136.248 28.4986 137.39 27.6197 138.826 26.9751C140.276 26.3306 141.865 26.0083 143.594 26.0083C146.333 26.0083 148.479 26.6968 150.032 28.0738C151.585 29.4361 152.39 31.3184 152.449 33.7207V44.6631C152.449 46.8457 152.727 48.5816 153.284 49.8707V50.2222H149.021ZM142.275 47.1241C143.55 47.1241 144.758 46.7945 145.901 46.1353C147.044 45.4761 147.871 44.6192 148.384 43.5645V38.6866H145.198C140.217 38.6866 137.727 40.1441 137.727 43.0591C137.727 44.3335 138.152 45.3296 139.002 46.0474C139.851 46.7652 140.942 47.1241 142.275 47.1241ZM172.664 43.9161C172.664 42.8174 172.246 41.9678 171.411 41.3672C170.591 40.752 169.148 40.2247 167.083 39.7852C165.032 39.3457 163.399 38.8184 162.183 38.2032C160.982 37.5879 160.088 36.8555 159.502 36.0059C158.931 35.1563 158.645 34.1456 158.645 32.9737C158.645 31.0254 159.465 29.3775 161.106 28.0298C162.761 26.6822 164.871 26.0083 167.434 26.0083C170.129 26.0083 172.312 26.7041 173.982 28.0957C175.667 29.4874 176.509 31.2671 176.509 33.4351H172.422C172.422 32.3218 171.946 31.3624 170.994 30.5567C170.056 29.751 168.87 29.3482 167.434 29.3482C165.955 29.3482 164.797 29.6705 163.963 30.315C163.128 30.9595 162.71 31.8018 162.71 32.8418C162.71 33.8233 163.098 34.563 163.875 35.0611C164.651 35.5591 166.05 36.0352 168.071 36.4893C170.108 36.9434 171.755 37.4854 173.015 38.1153C174.275 38.7452 175.205 39.5069 175.806 40.4004C176.421 41.2793 176.729 42.356 176.729 43.6304C176.729 45.7544 175.879 47.461 174.18 48.75C172.481 50.0245 170.276 50.6617 167.566 50.6617C165.662 50.6617 163.977 50.3248 162.512 49.6509C161.047 48.9771 159.898 48.0396 159.063 46.8384C158.242 45.6226 157.832 44.3116 157.832 42.9053H161.897C161.97 44.2676 162.512 45.3516 163.523 46.1573C164.548 46.9483 165.896 47.3438 167.566 47.3438C169.104 47.3438 170.335 47.0362 171.257 46.4209C172.195 45.7911 172.664 44.9561 172.664 43.9161ZM195.867 43.9161C195.867 42.8174 195.449 41.9678 194.614 41.3672C193.794 40.752 192.351 40.2247 190.286 39.7852C188.235 39.3457 186.602 38.8184 185.386 38.2032C184.185 37.5879 183.291 36.8555 182.705 36.0059C182.134 35.1563 181.848 34.1456 181.848 32.9737C181.848 31.0254 182.669 29.3775 184.309 28.0298C185.964 26.6822 188.074 26.0083 190.637 26.0083C193.333 26.0083 195.515 26.7041 197.185 28.0957C198.87 29.4874 199.712 31.2671 199.712 33.4351H195.625C195.625 32.3218 195.149 31.3624 194.197 30.5567C193.259 29.751 192.073 29.3482 190.637 29.3482C189.158 29.3482 188.001 29.6705 187.166 30.315C186.331 30.9595 185.913 31.8018 185.913 32.8418C185.913 33.8233 186.301 34.563 187.078 35.0611C187.854 35.5591 189.253 36.0352 191.275 36.4893C193.311 36.9434 194.959 37.4854 196.218 38.1153C197.478 38.7452 198.408 39.5069 199.009 40.4004C199.624 41.2793 199.932 42.356 199.932 43.6304C199.932 45.7544 199.082 47.461 197.383 48.75C195.684 50.0245 193.479 50.6617 190.769 50.6617C188.865 50.6617 187.18 50.3248 185.715 49.6509C184.251 48.9771 183.101 48.0396 182.266 46.8384C181.445 45.6226 181.035 44.3116 181.035 42.9053H185.1C185.173 44.2676 185.715 45.3516 186.726 46.1573C187.752 46.9483 189.099 47.3438 190.769 47.3438C192.307 47.3438 193.538 47.0362 194.461 46.4209C195.398 45.7911 195.867 44.9561 195.867 43.9161ZM216.719 30.0953C216.104 29.9927 215.437 29.9415 214.719 29.9415C212.053 29.9415 210.244 31.0767 209.292 33.3472V50.2222H205.227V26.4478H209.182L209.248 29.1944C210.581 27.0704 212.471 26.0083 214.917 26.0083C215.708 26.0083 216.309 26.1109 216.719 26.316V30.0953ZM218.96 38.1153C218.96 35.7862 219.414 33.6915 220.322 31.8311C221.245 29.9707 222.52 28.5352 224.146 27.5245C225.786 26.5137 227.654 26.0083 229.749 26.0083C232.986 26.0083 235.601 27.129 237.593 29.3702C239.6 31.6114 240.603 34.5923 240.603 38.313V38.5987C240.603 40.9131 240.156 42.9932 239.263 44.8389C238.384 46.67 237.117 48.0982 235.462 49.1236C233.821 50.149 231.931 50.6617 229.793 50.6617C226.57 50.6617 223.955 49.5411 221.948 47.2999C219.956 45.0586 218.96 42.0923 218.96 38.4009V38.1153ZM223.047 38.5987C223.047 41.2354 223.655 43.3521 224.871 44.9488C226.101 46.5455 227.742 47.3438 229.793 47.3438C231.858 47.3438 233.499 46.5381 234.714 44.9268C235.93 43.3008 236.538 41.0303 236.538 38.1153C236.538 35.5079 235.916 33.3985 234.671 31.7872C233.44 30.1612 231.799 29.3482 229.749 29.3482C227.742 29.3482 226.123 30.1465 224.893 31.7432C223.662 33.3399 223.047 35.625 223.047 38.5987ZM244.624 38.1153C244.624 35.7862 245.078 33.6915 245.986 31.8311C246.909 29.9707 248.184 28.5352 249.81 27.5245C251.45 26.5137 253.318 26.0083 255.413 26.0083C258.65 26.0083 261.265 27.129 263.257 29.3702C265.264 31.6114 266.267 34.5923 266.267 38.313V38.5987C266.267 40.9131 265.82 42.9932 264.927 44.8389C264.048 46.67 262.781 48.0982 261.126 49.1236C259.485 50.149 257.595 50.6617 255.457 50.6617C252.234 50.6617 249.619 49.5411 247.612 47.2999C245.62 45.0586 244.624 42.0923 244.624 38.4009V38.1153ZM248.711 38.5987C248.711 41.2354 249.319 43.3521 250.535 44.9488C251.765 46.5455 253.406 47.3438 255.457 47.3438C257.522 47.3438 259.163 46.5381 260.379 44.9268C261.594 43.3008 262.202 41.0303 262.202 38.1153C262.202 35.5079 261.58 33.3985 260.335 31.7872C259.104 30.1612 257.463 29.3482 255.413 29.3482C253.406 29.3482 251.787 30.1465 250.557 31.7432C249.326 33.3399 248.711 35.625 248.711 38.5987ZM275.188 26.4478L275.298 29.0845C277.041 27.0337 279.392 26.0083 282.351 26.0083C285.676 26.0083 287.94 27.2828 289.141 29.8316C289.932 28.689 290.957 27.7662 292.217 27.063C293.491 26.3599 294.993 26.0083 296.721 26.0083C301.936 26.0083 304.588 28.7696 304.675 34.292V50.2222H300.61V34.5337C300.61 32.8345 300.222 31.5674 299.446 30.7325C298.67 29.8829 297.366 29.4581 295.535 29.4581C294.026 29.4581 292.774 29.9122 291.777 30.8204C290.781 31.7139 290.203 32.9224 290.042 34.4458V50.2222H285.955V34.6436C285.955 31.1866 284.263 29.4581 280.879 29.4581C278.213 29.4581 276.389 30.5933 275.408 32.8638V50.2222H271.343V26.4478H275.188Z" fill="white"/>
</svg>
