<svg width="90" height="90" viewBox="0 0 90 90" fill="none" xmlns="http://www.w3.org/2000/svg">
<path fill-rule="evenodd" clip-rule="evenodd" d="M45 90C69.8528 90 90 69.8528 90 45C90 20.1472 69.8528 0 45 0C20.1472 0 0 20.1472 0 45C0 69.8528 20.1472 90 45 90Z" fill="#2C3E50"/>
<path d="M23.8741 22.7762C23.8741 18.9102 27.0081 15.7762 30.8741 15.7762H31.4113V74.0638H30.8741C27.0081 74.0638 23.8741 70.9298 23.8741 67.0638V22.7762Z" fill="white"/>
<path d="M31.4113 15.7762H58.3287C62.1947 15.7762 65.3287 18.9102 65.3287 22.7762V67.0638C65.3287 70.9298 62.1947 74.0638 58.3287 74.0638H31.4113V15.7762Z" fill="#5E82A6"/>
<rect x="36.6874" y="22.0572" width="19.3007" height="2.5124" rx="1.2562" fill="white"/>
<rect x="38.9485" y="26.9162" width="14.2657" height="2.5124" rx="1.2562" fill="white"/>
<path d="M45.9184 69.4942C46.5042 70.08 47.4539 70.08 48.0397 69.4942L57.5856 59.9483C58.1714 59.3625 58.1714 58.4127 57.5856 57.827C56.9998 57.2412 56.0501 57.2412 55.4643 57.827L46.979 66.3122L38.4938 57.827C37.908 57.2412 36.9582 57.2412 36.3724 57.827C35.7866 58.4127 35.7866 59.3625 36.3724 59.9483L45.9184 69.4942ZM45.479 46.6154V68.4336H48.479V46.6154H45.479Z" fill="white"/>
<line x1="36.5909" y1="46.979" x2="57.5699" y2="46.979" stroke="white" stroke-width="2"/>
</svg>
