<svg width="32" height="33" viewBox="0 0 32 33" fill="none" xmlns="http://www.w3.org/2000/svg">
<path fill-rule="evenodd" clip-rule="evenodd" d="M16 32.25C24.8366 32.25 32 25.0866 32 16.25C32 7.41344 24.8366 0.25 16 0.25C7.16344 0.25 0 7.41344 0 16.25C0 25.0866 7.16344 32.25 16 32.25Z" fill="#2C3E50"/>
<path d="M8.4886 6.85932C8.4886 6.30704 8.93632 5.85932 9.4886 5.85932H11.1685V26.5838H9.4886C8.93632 26.5838 8.4886 26.1361 8.4886 25.5838V6.85932Z" fill="white"/>
<path d="M11.1685 5.85932H22.228C22.7803 5.85932 23.228 6.30704 23.228 6.85932V25.5838C23.228 26.1361 22.7803 26.5838 22.228 26.5838H11.1685V5.85932Z" fill="#5E82A6"/>
<path d="M13.0444 8.34653C13.0444 8.20627 13.1581 8.09256 13.2984 8.09256H19.6529C19.7932 8.09256 19.9069 8.20627 19.9069 8.34653V8.34653C19.9069 8.48679 19.7932 8.6005 19.6529 8.6005H13.2984C13.1581 8.6005 13.0444 8.48679 13.0444 8.34653V8.34653Z" fill="white"/>
<path d="M13.8484 10.0742C13.8484 9.93391 13.9621 9.8202 14.1023 9.8202H18.6667C18.8069 9.8202 18.9206 9.93391 18.9206 10.0742V10.0742C18.9206 10.2144 18.8069 10.3281 18.6667 10.3281H14.1023C13.9621 10.3281 13.8484 10.2144 13.8484 10.0742V10.0742Z" fill="white"/>
<path d="M16.3421 24.1989C16.5374 24.3942 16.8539 24.3942 17.0492 24.1989L20.2312 21.0169C20.4264 20.8217 20.4264 20.5051 20.2312 20.3098C20.0359 20.1145 19.7193 20.1145 19.5241 20.3098L16.6956 23.1382L13.8672 20.3098C13.672 20.1145 13.3554 20.1145 13.1601 20.3098C12.9649 20.5051 12.9649 20.8217 13.1601 21.0169L16.3421 24.1989ZM16.1956 17.9891V23.8453H17.1956V17.9891H16.1956Z" fill="white"/>
<line x1="13.913" y1="17.4891" x2="19.4783" y2="17.4891" stroke="white"/>
</svg>
